<svg width="32" height="32" viewBox="0 0 32 32" fill="none" xmlns="http://www.w3.org/2000/svg">
  <!-- Background circle -->
  <circle cx="16" cy="16" r="15" fill="#8B5CF6" stroke="#7C3AED" stroke-width="2"/>
  
  <!-- Image/photo icon -->
  <rect x="8" y="10" width="16" height="12" rx="2" fill="white" stroke="#8B5CF6" stroke-width="1"/>
  
  <!-- Mountain/landscape in the image -->
  <path d="M10 18 L14 14 L18 16 L22 12 L22 20 L10 20 Z" fill="#E5E7EB"/>
  
  <!-- Sun/circle in image -->
  <circle cx="19" cy="13" r="1.5" fill="#FCD34D"/>
  
  <!-- AI/magic sparkles -->
  <g fill="#FBBF24">
    <!-- Top sparkle -->
    <path d="M16 6 L16.5 7.5 L18 8 L16.5 8.5 L16 10 L15.5 8.5 L14 8 L15.5 7.5 Z"/>
    <!-- Right sparkle -->
    <path d="M24 14 L24.3 14.7 L25 15 L24.3 15.3 L24 16 L23.7 15.3 L23 15 L23.7 14.7 Z"/>
    <!-- Left sparkle -->
    <path d="M8 16 L8.3 16.7 L9 17 L8.3 17.3 L8 18 L7.7 17.3 L7 17 L7.7 16.7 Z"/>
  </g>
  
  <!-- Eraser/removal effect -->
  <path d="M20 22 L26 22" stroke="white" stroke-width="2" stroke-linecap="round" stroke-dasharray="2,2"/>
</svg>